HIERARCHY
ROOT Hips
{
	OFFSET 0.000000 83.214638 0.000000
	CHANNELS 6 Xposition Yposition Zposition Xrotation Yrotation Zrotation
	JOINT Pelvis
	{
		OFFSET 0.000000 0.000000 0.000000
		CHANNELS 3 Xrotation Yrotation Zrotation
		JOINT LeftUpLeg
		{
			OFFSET 8.479700 -4.795502 -0.379100
			CHANNELS 3 Xrotation Yrotation Zrotation
			JOINT LeftLeg
			{
				OFFSET 0.024144 -32.555107 0.112900
				CHANNELS 3 Xrotation Yrotation Zrotation
				JOINT LeftFoot
				{
					OFFSET -0.024144 -32.638630 -3.012600
					CHANNELS 3 Xrotation Yrotation Zrotation
					JOINT LeftToeBase
					{
						OFFSET 0.970200 -13.225400 11.864200
						CHANNELS 3 Xrotation Yrotation Zrotation
						End Site
						{
							OFFSET 0.000000 12.319262 0.000000
						}
					}
					JOINT LFootTongue
					{
						OFFSET 1.142400 -1.059800 6.665200
						CHANNELS 3 Xrotation Yrotation Zrotation
						End Site
						{
							OFFSET 0.000000 12.319262 0.000000
						}
					}
				}
				JOINT LeftPantLeg
				{
					OFFSET 0.918482 -16.533964 -2.284700
					CHANNELS 3 Xrotation Yrotation Zrotation
					End Site
					{
						OFFSET 0.350399 24.744368 0.000000
					}
				}
			}
		}
		JOINT RightUpLeg
		{
			OFFSET -8.479700 -4.795502 -0.379100
			CHANNELS 3 Xrotation Yrotation Zrotation
			JOINT RightLeg
			{
				OFFSET -0.023144 -32.555092 0.112900
				CHANNELS 3 Xrotation Yrotation Zrotation
				JOINT RightFoot
				{
					OFFSET 0.023144 -32.638641 -3.012700
					CHANNELS 3 Xrotation Yrotation Zrotation
					JOINT RightToeBase
					{
						OFFSET -0.970200 -13.225400 11.864200
						CHANNELS 3 Xrotation Yrotation Zrotation
						End Site
						{
							OFFSET 0.000000 12.319244 0.000000
						}
					}
					JOINT RFootTongue
					{
						OFFSET -1.142200 -1.059800 6.665200
						CHANNELS 3 Xrotation Yrotation Zrotation
						End Site
						{
							OFFSET 0.000000 12.319243 0.000000
						}
					}
				}
				JOINT RightPantLeg
				{
					OFFSET -0.919482 -16.533978 -2.284800
					CHANNELS 3 Xrotation Yrotation Zrotation
					End Site
					{
						OFFSET -0.350400 24.744419 0.000000
					}
				}
			}
		}
	}
	JOINT Spine
	{
		OFFSET 0.000000 7.722000 1.166200
		CHANNELS 3 Xrotation Yrotation Zrotation
		JOINT Spine1
		{
			OFFSET 0.000000 12.024101 0.248800
			CHANNELS 3 Xrotation Yrotation Zrotation
			JOINT Spine2
			{
				OFFSET 0.000000 11.502998 -0.491200
				CHANNELS 3 Xrotation Yrotation Zrotation
				JOINT Neck
				{
					OFFSET 0.000000 18.430702 -3.123100
					CHANNELS 3 Xrotation Yrotation Zrotation
					JOINT Head
					{
						OFFSET 0.000000 9.051102 1.034000
						CHANNELS 3 Xrotation Yrotation Zrotation
						JOINT HairB
						{
							OFFSET 0.208400 24.786102 24.822300
							CHANNELS 3 Xrotation Yrotation Zrotation
							End Site
							{
								OFFSET 0.000000 32.263779 0.000000
							}
						}
						JOINT HairA
						{
							OFFSET -7.081100 24.428299 23.196600
							CHANNELS 3 Xrotation Yrotation Zrotation
							End Site
							{
								OFFSET 0.000000 32.263779 0.000000
							}
						}
						JOINT Hat
						{
							OFFSET 16.728800 15.048294 -15.439601
							CHANNELS 3 Xrotation Yrotation Zrotation
							End Site
							{
								OFFSET 0.000000 32.263779 0.000000
							}
						}
					}
				}
				JOINT LeftShoulder
				{
					OFFSET 6.197800 13.665199 -4.064700
					CHANNELS 3 Xrotation Yrotation Zrotation
					JOINT LeftArm
					{
						OFFSET 7.778100 -0.187103 -1.709300
						CHANNELS 3 Xrotation Yrotation Zrotation
						JOINT LeftForeArm
						{
							OFFSET 22.049376 0.000000 0.000000
							CHANNELS 3 Xrotation Yrotation Zrotation
							JOINT LeftHand
							{
								OFFSET 23.009392 0.000000 0.000000
								CHANNELS 3 Xrotation Yrotation Zrotation
								JOINT LeftHandThumb1
								{
									OFFSET 3.507191 -2.063065 3.133727
									CHANNELS 3 Xrotation Yrotation Zrotation
									JOINT LeftHandThumb2
									{
										OFFSET 3.101337 -1.790558 1.790558
										CHANNELS 3 Xrotation Yrotation Zrotation
										JOINT LeftHandThumb3
										{
											OFFSET 3.058640 -1.765907 1.765906
											CHANNELS 3 Xrotation Yrotation Zrotation
											End Site
											{
												OFFSET -0.415260 3.926476 -0.049563
											}
										}
									}
								}
								JOINT LeftHandIndex1
								{
									OFFSET 11.334419 -0.901459 3.706815
									CHANNELS 3 Xrotation Yrotation Zrotation
									JOINT LeftHandIndex2
									{
										OFFSET 3.283112 0.000000 0.000000
										CHANNELS 3 Xrotation Yrotation Zrotation
										JOINT LeftHandIndex3
										{
											OFFSET 3.323853 0.000000 0.000000
											CHANNELS 3 Xrotation Yrotation Zrotation
											End Site
											{
												OFFSET -1.135597 3.097809 0.402452
											}
										}
									}
								}
								JOINT LeftHandMiddle1
								{
									OFFSET 11.335861 0.000000 0.000000
									CHANNELS 3 Xrotation Yrotation Zrotation
									JOINT LeftHandMiddle2
									{
										OFFSET 3.410492 0.000000 0.000000
										CHANNELS 3 Xrotation Yrotation Zrotation
										JOINT LeftHandMiddle3
										{
											OFFSET 3.312172 0.000000 0.000000
											CHANNELS 3 Xrotation Yrotation Zrotation
											End Site
											{
												OFFSET -1.150200 3.080154 0.400270
											}
										}
									}
								}
								JOINT LeftHandRing1
								{
									OFFSET 11.514786 -0.013176 -3.003090
									CHANNELS 3 Xrotation Yrotation Zrotation
									JOINT LeftHandRing2
									{
										OFFSET 3.053307 0.000000 0.000000
										CHANNELS 3 Xrotation Yrotation Zrotation
										JOINT LeftHandRing3
										{
											OFFSET 3.295807 0.000000 0.000000
											CHANNELS 3 Xrotation Yrotation Zrotation
											End Site
											{
												OFFSET -1.281006 3.013344 0.375733
											}
										}
									}
								}
								JOINT LeftHandPinky1
								{
									OFFSET 10.518692 -0.960396 -5.730441
									CHANNELS 3 Xrotation Yrotation Zrotation
									JOINT LeftHandPinky2
									{
										OFFSET 2.861649 0.000000 0.000000
										CHANNELS 3 Xrotation Yrotation Zrotation
										JOINT LeftHandPinky3
										{
											OFFSET 2.863380 0.000000 0.000000
											CHANNELS 3 Xrotation Yrotation Zrotation
											End Site
											{
												OFFSET -0.843597 2.711159 0.369971
											}
										}
									}
								}
							}
							JOINT LSleeve
							{
								OFFSET 6.676277 -0.344902 -1.011730
								CHANNELS 3 Xrotation Yrotation Zrotation
								End Site
								{
									OFFSET 0.000000 14.885353 0.000000
								}
							}
						}
					}
				}
				JOINT RightShoulder
				{
					OFFSET -6.197800 13.665199 -4.064700
					CHANNELS 3 Xrotation Yrotation Zrotation
					JOINT RightArm
					{
						OFFSET -7.778100 -0.187103 -1.709300
						CHANNELS 3 Xrotation Yrotation Zrotation
						JOINT RightForeArm
						{
							OFFSET -22.049376 0.000000 0.000000
							CHANNELS 3 Xrotation Yrotation Zrotation
							JOINT RightHand
							{
								OFFSET -23.009392 0.000000 0.000000
								CHANNELS 3 Xrotation Yrotation Zrotation
								JOINT RightHandThumb1
								{
									OFFSET -3.507191 -2.063065 3.133727
									CHANNELS 3 Xrotation Yrotation Zrotation
									JOINT RightHandThumb2
									{
										OFFSET -3.101337 -1.790558 1.790558
										CHANNELS 3 Xrotation Yrotation Zrotation
										JOINT RightHandThumb3
										{
											OFFSET -3.058640 -1.765907 1.765906
											CHANNELS 3 Xrotation Yrotation Zrotation
											End Site
											{
												OFFSET 0.415260 3.926476 -0.049563
											}
										}
									}
								}
								JOINT RightHandIndex1
								{
									OFFSET -11.334419 -0.901459 3.706815
									CHANNELS 3 Xrotation Yrotation Zrotation
									JOINT RightHandIndex2
									{
										OFFSET -3.283112 0.000000 0.000000
										CHANNELS 3 Xrotation Yrotation Zrotation
										JOINT RightHandIndex3
										{
											OFFSET -3.323853 0.000000 0.000000
											CHANNELS 3 Xrotation Yrotation Zrotation
											End Site
											{
												OFFSET 1.135597 3.097809 0.402452
											}
										}
									}
								}
								JOINT RightHandMiddle1
								{
									OFFSET -11.335861 0.000000 0.000000
									CHANNELS 3 Xrotation Yrotation Zrotation
									JOINT RightHandMiddle2
									{
										OFFSET -3.410492 0.000000 0.000000
										CHANNELS 3 Xrotation Yrotation Zrotation
										JOINT RightHandMiddle3
										{
											OFFSET -3.312172 0.000000 0.000000
											CHANNELS 3 Xrotation Yrotation Zrotation
											End Site
											{
												OFFSET 1.150200 3.080154 0.400270
											}
										}
									}
								}
								JOINT RightHandRing1
								{
									OFFSET -11.514786 -0.013176 -3.003090
									CHANNELS 3 Xrotation Yrotation Zrotation
									JOINT RightHandRing2
									{
										OFFSET -3.053307 0.000000 0.000000
										CHANNELS 3 Xrotation Yrotation Zrotation
										JOINT RightHandRing3
										{
											OFFSET -3.295807 0.000000 0.000000
											CHANNELS 3 Xrotation Yrotation Zrotation
											End Site
											{
												OFFSET 1.281006 3.013344 0.375733
											}
										}
									}
								}
								JOINT RightHandPinky1
								{
									OFFSET -10.518692 -0.960396 -5.730441
									CHANNELS 3 Xrotation Yrotation Zrotation
									JOINT RightHandPinky2
									{
										OFFSET -2.861649 0.000000 0.000000
										CHANNELS 3 Xrotation Yrotation Zrotation
										JOINT RightHandPinky3
										{
											OFFSET -2.863380 0.000000 0.000000
											CHANNELS 3 Xrotation Yrotation Zrotation
											End Site
											{
												OFFSET 0.843597 2.711159 0.369971
											}
										}
									}
								}
							}
							JOINT RSleeve
							{
								OFFSET -6.676277 -0.344902 -1.011730
								CHANNELS 3 Xrotation Yrotation Zrotation
								End Site
								{
									OFFSET 0.000000 14.885353 0.000000
								}
							}
						}
					}
				}
				JOINT Backpack
				{
					OFFSET 0.000000 -2.471497 36.677502
					CHANNELS 3 Xrotation Yrotation Zrotation
					End Site
					{
						OFFSET 0.000000 20.427315 0.000000
					}
				}
				JOINT Hood
				{
					OFFSET 0.000000 18.754097 -10.431000
					CHANNELS 3 Xrotation Yrotation Zrotation
					JOINT Hood1
					{
						OFFSET 0.000000 -5.011002 -7.685901
						CHANNELS 3 Xrotation Yrotation Zrotation
						End Site
						{
							OFFSET 0.000000 9.175140 0.000000
						}
					}
				}
				JOINT LHoodieString
				{
					OFFSET 5.250500 16.397697 3.089900
					CHANNELS 3 Xrotation Yrotation Zrotation
					JOINT LHoodieString1
					{
						OFFSET 0.257700 -6.364304 3.694600
						CHANNELS 3 Xrotation Yrotation Zrotation
						JOINT LHoodieString2
						{
							OFFSET 0.000000 -9.643799 2.679100
							CHANNELS 3 Xrotation Yrotation Zrotation
							End Site
							{
								OFFSET 0.000000 10.009018 0.000000
							}
						}
					}
				}
				JOINT RHoodieString
				{
					OFFSET -5.250500 16.397697 3.089900
					CHANNELS 3 Xrotation Yrotation Zrotation
					JOINT RHoodieString1
					{
						OFFSET -0.257700 -6.364304 3.694600
						CHANNELS 3 Xrotation Yrotation Zrotation
						JOINT RHoodieString2
						{
							OFFSET 0.000000 -9.643799 2.679100
							CHANNELS 3 Xrotation Yrotation Zrotation
							End Site
							{
								OFFSET 0.000000 10.009018 0.000000
							}
						}
					}
				}
			}
			JOINT LBackpack_Strap
			{
				OFFSET 15.223200 -7.719803 -6.610900
				CHANNELS 3 Xrotation Yrotation Zrotation
				End Site
				{
					OFFSET 0.000000 16.040596 0.000000
				}
			}
			JOINT RBackpack_Strap
			{
				OFFSET -15.223000 -7.719803 -6.610900
				CHANNELS 3 Xrotation Yrotation Zrotation
				End Site
				{
					OFFSET 0.000000 16.040596 0.000000
				}
			}
		}
	}
	JOINT BoyFacialAnim_Joint
	{
		OFFSET 1.000000 -82.208099 -1.550900
		CHANNELS 3 Xrotation Yrotation Zrotation
		End Site
		{
			OFFSET 0.000000 30.012791 0.000000
		}
	}
}
MOTION
Frames: 4
Frame Time: 0.016667
-5.303094 78.823807 0.534418 2.464616 28.031660 0.481771 -0.000000 -0.000000 -0.000000 -31.044910 -22.998137 0.245902 28.010806 15.587436 -7.645366 1.688793 -3.121722 -5.195507 -0.000000 -0.000002 0.000000 -0.000000 -0.000002 0.000000 -0.000000 -0.000002 -0.000000 -4.105510 -27.544903 -7.535826 29.214994 -8.697198 7.636544 -25.668454 -10.141767 -0.338456 0.000000 -0.000000 -0.000000 0.000000 -0.000000 -0.000000 0.000000 -0.000001 0.000000 3.884503 4.624585 -1.462721 0.662380 3.033939 0.848257 0.672733 3.142720 0.838939 -2.710827 10.151296 -6.043544 -8.274084 5.419470 8.279209 0.000000 0.000002 0.000000 0.000000 0.000002 0.000000 0.000000 0.000002 0.000000 -0.170425 1.694771 -1.674852 -70.359186 1.043909 -26.985323 2.443044 -70.793258 3.754332 -29.776158 28.488664 8.482176 17.563633 -5.693984 -12.929208 10.852354 26.148363 8.654067 0.000003 -0.000002 0.000000 13.978270 1.203588 -55.006034 0.372678 1.163876 -65.441880 0.000001 -0.000000 -0.000004 7.502557 1.175442 -63.755274 1.809515 1.478262 -64.569876 -0.000001 0.000002 0.000006 8.574326 2.179105 -75.148992 -0.208031 1.014705 -57.856798 0.000002 0.000003 -0.000002 10.030097 13.637013 -84.750237 0.878835 0.065157 -64.595496 -0.000001 0.000000 0.000003 0.000000 0.000001 -0.000000 4.020290 15.450598 6.652469 13.125175 -8.190054 63.320812 15.659592 40.753512 -6.335591 0.612804 5.014362 4.113597 15.788506 -2.734489 -17.205892 -2.198320 -31.113550 7.361202 0.000000 0.000001 -0.000001 2.074297 -2.892230 8.063597 -2.121946 -2.465273 18.435487 0.000001 0.000001 0.000002 -2.068517 -5.551579 13.796152 0.296913 -5.078006 27.073154 -0.000000 0.000001 -0.000002 -2.790433 -9.236749 13.386729 4.022950 -4.011816 34.251753 -0.000002 0.000001 -0.000001 -5.652125 -13.452088 23.029977 10.777264 -2.332153 36.218451 -0.000000 -0.000001 -0.000002 0.000001 -0.000001 0.000000 0.000000 -0.000001 0.000000 0.000000 -0.000001 0.000000 0.000000 -0.000001 0.000000 0.000000 -0.000001 0.000000 0.000000 -0.000001 -0.000000 -0.000001 0.000001 -0.000000 0.000000 -0.000001 0.000000 0.000000 -0.000001 -0.000000 -0.000001 0.000001 -0.000000 -0.000000 -0.000003 -0.000000 -0.000000 -0.000003 -0.000000 -0.000000 -0.000000 -0.000000 
-5.318233 78.842773 0.448225 2.694638 26.635255 0.302069 -0.000000 -0.000002 0.000000 -30.944356 -22.300684 0.904261 28.209938 15.870506 -7.649925 1.504690 -2.908283 -5.318460 0.000000 0.000001 -0.000000 0.000000 0.000001 -0.000000 -0.000000 0.000000 -0.000000 -4.644626 -26.519794 -7.456313 29.366091 -8.448519 7.467474 -25.528008 -10.031046 -0.325354 -0.000000 0.000002 0.000000 -0.000000 0.000002 0.000000 -0.000001 -0.000001 0.000000 3.951276 4.547855 -1.476394 0.707250 2.981743 0.854121 0.717239 3.091649 0.846011 -3.079328 8.772030 -5.694020 -7.482103 4.208279 8.375151 -0.000000 0.000001 -0.000000 -0.000000 0.000001 -0.000000 -0.000000 0.000001 -0.000000 -0.162803 1.312169 -1.801278 -70.388911 1.155125 -27.050797 2.651007 -71.946433 3.781609 -30.374961 28.694622 9.100163 17.563633 -5.693984 -12.929208 10.852353 26.148370 8.654069 0.000001 -0.000001 0.000001 13.978271 1.203586 -55.006034 0.372678 1.163876 -65.441880 -0.000003 0.000001 -0.000003 7.502558 1.175436 -63.755281 1.809513 1.478264 -64.569876 -0.000003 0.000001 -0.000003 8.574327 2.179104 -75.148992 -0.208030 1.014705 -57.856798 0.000003 0.000001 0.000005 10.030096 13.637017 -84.750244 0.878835 0.065159 -64.595496 0.000001 0.000000 -0.000000 -0.000001 0.000001 0.000001 4.048800 15.426146 6.521218 12.805619 -8.144394 63.265761 15.745731 41.230864 -6.421033 0.382662 5.166921 4.027968 15.788508 -2.734490 -17.205890 -2.198315 -31.113550 7.361206 0.000001 0.000001 0.000002 2.074628 -2.893194 8.030010 -2.121181 -2.465799 18.407488 -0.000001 -0.000001 0.000003 -2.069252 -5.550824 13.763141 0.297727 -5.078504 27.045821 -0.000000 -0.000003 -0.000002 -2.792274 -9.234406 13.352269 4.022581 -4.012765 34.223206 -0.000003 -0.000001 0.000000 -5.659304 -13.435654 23.012565 10.777870 -2.332975 36.195447 -0.000000 -0.000001 -0.000002 0.000000 -0.000002 0.000001 0.000000 -0.000000 -0.000000 0.000000 -0.000000 -0.000000 0.000000 -0.000000 -0.000000 0.000000 -0.000000 -0.000000 0.000000 -0.000000 -0.000000 0.000000 -0.000000 0.000000 0.000000 -0.000000 -0.000000 0.000000 -0.000000 -0.000000 0.000000 -0.000000 0.000000 -0.000000 0.000001 -0.000000 -0.000000 0.000001 -0.000000 -0.000000 -0.000002 0.000000 
-5.326139 78.859711 0.353308 2.952724 25.203721 0.121529 0.000000 -0.000002 0.000000 -30.886716 -21.626399 1.556204 28.426062 16.196006 -7.671119 1.314939 -2.668048 -5.452185 -0.000000 0.000003 -0.000000 -0.000000 0.000003 -0.000000 -0.000000 0.000001 0.000000 -5.223206 -25.432720 -7.412604 29.527874 -8.199780 7.381912 -25.378049 -9.902327 -0.318783 -0.000000 0.000001 0.000000 -0.000000 0.000001 0.000000 -0.000002 0.000001 -0.000000 4.013724 4.485262 -1.471113 0.745715 2.934846 0.846918 0.756890 3.044787 0.839890 -3.457282 7.577858 -5.438824 -6.770384 3.128966 8.503118 -0.000000 -0.000001 -0.000000 -0.000000 -0.000001 -0.000000 -0.000000 -0.000001 -0.000000 -0.084037 0.806783 -1.884201 -70.540295 1.291854 -27.179160 2.895033 -73.071058 3.786727 -31.235654 28.851402 9.761317 17.563637 -5.693989 -12.929208 10.852352 26.148370 8.654069 -0.000003 0.000001 0.000000 13.978271 1.203582 -55.006034 0.372682 1.163881 -65.441880 -0.000000 0.000000 -0.000002 7.502559 1.175439 -63.755274 1.809514 1.478263 -64.569870 0.000001 0.000000 0.000000 8.574326 2.179103 -75.148992 -0.208038 1.014707 -57.856798 0.000001 0.000002 -0.000000 10.030096 13.637011 -84.750244 0.878835 0.065159 -64.595496 -0.000000 0.000002 0.000005 0.000001 -0.000004 0.000002 4.018018 15.343497 6.386902 12.582815 -8.065739 63.241869 15.851407 41.731978 -6.506793 0.197813 5.306166 3.964801 15.788506 -2.734489 -17.205892 -2.198320 -31.113554 7.361204 -0.000000 0.000001 0.000000 2.074945 -2.893533 7.958530 -2.120558 -2.465802 18.342304 -0.000000 0.000001 0.000000 -2.070267 -5.549545 13.692528 0.297851 -5.078817 26.981098 0.000001 -0.000000 -0.000000 -2.794151 -9.231183 13.280182 4.022281 -4.012936 34.157260 -0.000003 0.000000 0.000000 -5.666625 -13.418900 22.958429 10.777993 -2.333374 36.135731 0.000000 -0.000001 -0.000002 -0.000000 -0.000001 0.000001 0.000001 -0.000001 0.000000 0.000001 -0.000001 0.000000 0.000001 -0.000001 0.000000 0.000001 -0.000001 0.000000 0.000001 -0.000001 -0.000000 0.000000 -0.000001 -0.000000 0.000001 -0.000001 0.000000 0.000001 -0.000001 -0.000000 0.000000 -0.000001 -0.000000 -0.000001 -0.000001 -0.000000 -0.000001 -0.000001 -0.000000 0.000000 -0.000002 0.000000 
-5.329648 78.875351 0.250398 3.240344 23.734050 -0.060395 0.000000 -0.000001 -0.000000 -30.870891 -21.002261 2.205291 28.649952 16.554528 -7.715366 1.138169 -2.409800 -5.575638 0.000000 0.000000 0.000000 0.000000 0.000000 0.000000 -0.000000 -0.000001 -0.000000 -5.870776 -24.355703 -7.386961 29.732671 -7.970730 7.302374 -25.223498 -9.780576 -0.329358 -0.000000 0.000002 0.000000 -0.000000 0.000002 0.000000 0.000000 0.000001 -0.000000 4.064047 4.385460 -1.499451 0.790330 2.868907 0.853545 0.800377 2.980542 0.848366 -3.958434 6.548236 -5.148045 -6.079051 2.232480 8.598652 0.000000 -0.000000 -0.000001 0.000000 -0.000000 -0.000001 0.000000 -0.000000 -0.000001 -0.018821 0.448286 -1.891516 -70.716548 1.401109 -27.633591 3.155399 -74.131082 3.832587 -32.165089 28.983382 10.355865 17.563633 -5.693986 -12.929208 10.852356 26.148363 8.654072 -0.000003 -0.000002 0.000000 13.978272 1.203587 -55.006037 0.372678 1.163878 -65.441880 -0.000000 0.000001 -0.000002 7.502558 1.175441 -63.755274 1.809516 1.478264 -64.569876 -0.000001 0.000001 0.000000 8.574327 2.179102 -75.148992 -0.208039 1.014705 -57.856798 -0.000000 0.000002 -0.000000 10.030096 13.637012 -84.750237 0.878836 0.065159 -64.595496 0.000001 0.000001 0.000003 0.000000 0.000001 0.000002 4.046390 15.322747 6.229107 12.299355 -7.930866 63.218120 15.936184 42.171651 -6.586657 0.096999 5.468608 3.943408 15.788506 -2.734486 -17.205889 -2.198318 -31.113550 7.361202 0.000001 -0.000000 -0.000000 2.075184 -2.893275 7.852207 -2.120030 -2.465284 18.240806 -0.000002 -0.000002 0.000003 -2.071541 -5.547792 13.586793 0.297053 -5.079016 26.880715 -0.000001 -0.000002 -0.000000 -2.798407 -9.227087 13.172290 4.022021 -4.012404 34.056030 -0.000002 0.000001 -0.000001 -5.674508 -13.400888 22.869613 10.777690 -2.333366 36.041269 -0.000002 0.000001 -0.000001 0.000000 -0.000002 0.000001 -0.000000 0.000002 -0.000000 -0.000000 0.000002 -0.000000 -0.000000 0.000002 -0.000000 -0.000000 0.000002 -0.000000 -0.000000 0.000002 -0.000001 -0.000001 0.000000 -0.000000 -0.000000 0.000002 -0.000000 -0.000000 0.000002 -0.000001 -0.000001 0.000000 -0.000000 0.000001 -0.000001 0.000000 0.000001 -0.000001 0.000000 0.000000 -0.000001 -0.000000 
